PathFileType	4	(X/Y/Z)	./resultDataOpenSim/trcMotMarkerGrf/sub09/qtm-13-04.trc
DataRate	CameraRate	NumFrames	NumMarkers	Units	OrigDataRate	OrigDataStartFrame	OrigNumFrames
250.000000	250.000000	10	24	m	250.000000	1	512
Frame#	Time	L.Toe.Tip			R.Toe.Tip			L.Ankle.Lat			R.Ankle.Lat			L.Ankle.Med			R.Ankle.Med			L.Heel			R.Heel			L.Knee.Lat			R.Knee.Lat			L.Knee.Med			R.Knee.Med			L.Thigh.Upper			R.Thigh.Upper			L.ASIS			R.ASIS			V.Sacral			L.Acromium			R.Acromium			C7			L.Elbow			R.Elbow			L.Wrist.Lat			R.Wrist.Lat
		X1	Y1	Z1	X2	Y2	Z2	X3	Y3	Z3	X4	Y4	Z4	X5	Y5	Z5	X6	Y6	Z6	X7	Y7	Z7	X8	Y8	Z8	X9	Y9	Z9	X10	Y10	Z10	X11	Y11	Z11	X12	Y12	Z12	X13	Y13	Z13	X14	Y14	Z14	X15	Y15	Z15	X16	Y16	Z16	X17	Y17	Z17	X18	Y18	Z18	X19	Y19	Z19	X20	Y20	Z20	X21	Y21	Z21	X22	Y22	Z22	X23	Y23	Z23	X24	Y24	Z24

1	0	-1.4704837	0.036798491	-0.045345828	-0.89979262	0.089504931	0.058539351	-1.6216206	0.079638228	-0.072922812	-1.0493039	0.067119286	0.08520946	-1.5912925	0.09866483	0.018015319	-1.0402832	0.11342255	-0.0030539099	NaN	NaN	NaN	-1.1014885	0.028667815	0.02780697	-1.4772437	0.47188155	-0.14418347	-1.1182608	0.52042685	0.13313031	-1.4710353	0.47382562	-0.018364969	-1.1199463	0.50222338	0.0062032182	-1.3618022	0.87688723	-0.19556006	-1.3230003	0.87125981	0.17377387	-1.2536439	0.94845545	-0.14445839	-1.241877	0.95358244	0.096878081	-1.4023065	1.0164459	-0.0076768291	-1.2067263	1.4005599	-0.17832444	-1.2428175	1.4153133	0.14835182	-1.2828475	1.463055	-0.019014546	-1.352256	1.057683	-0.26396602	-1.4299153	1.1140908	0.24268603	-1.1319595	0.89642535	-0.24366801	-1.3530331	0.8589254	0.29578646
2	0.004	-1.4704169	0.036730615	-0.045332451	-0.88272518	0.092686685	0.058453356	-1.6212566	0.080230703	-0.07264813	-1.0320671	0.067309176	0.084428356	-1.590528	0.099139522	0.018265298	-1.0234891	0.11401805	-0.0035857702	NaN	NaN	NaN	-1.0821657	0.027380704	0.027909839	-1.4741386	0.47153458	-0.1440467	-1.1122578	0.51860297	0.13303448	-1.467909	0.4734146	-0.01830455	-1.1129344	0.50074371	0.0057951466	-1.3567489	0.87543577	-0.196307	-1.3167182	0.86929609	0.17375987	-1.2480772	0.94685603	-0.14480849	-1.2353636	0.95179338	0.096682823	-1.3958929	1.0148312	-0.00728609	-1.2008534	1.3990334	-0.17825869	-1.2371223	1.4136993	0.14840284	-1.277333	1.4615939	-0.01906088	-1.3456157	1.0554141	-0.26432761	-1.4241679	1.1122987	0.24227576	-1.1244082	0.89564112	-0.24331447	-1.3475475	0.85721383	0.29590598
3	0.008	-1.4703401	0.036663356	-0.045330138	-0.86583195	0.096070781	0.058242152	-1.6209373	0.080838755	-0.072370739	-1.015106	0.067577326	0.083640693	-1.5897548	0.099628552	0.018477349	-1.0069444	0.11474015	-0.0041274687	NaN	NaN	NaN	-1.0634094	0.026390022	0.027644575	-1.471018	0.4711894	-0.14394848	-1.1063534	0.51676957	0.13286848	-1.464613	0.47299378	-0.018243223	-1.1059979	0.49925131	0.0053880051	-1.3515508	0.87405669	-0.19676219	-1.3103882	0.86732644	0.1737369	-1.2423726	0.94527074	-0.14511931	-1.2288034	0.95002095	0.096490206	-1.3894638	1.0132467	-0.0068737921	-1.1949254	1.397514	-0.17817792	-1.231422	1.4120838	0.1484763	-1.2718103	1.4600986	-0.01913235	-1.339009	1.0531793	-0.26472021	-1.4183712	1.1105074	0.24189378	-1.1168643	0.89483368	-0.24296849	-1.3420195	0.8554938	0.29600632
4	0.012	-1.4702457	0.036598997	-0.045348059	-0.84928698	0.099759521	0.057951558	-1.6206794	0.081475867	-0.072096954	-0.99849885	0.067987148	0.082881843	-1.5889824	0.10013101	0.018630804	-0.99081894	0.11563934	-0.0046840421	NaN	NaN	NaN	-1.0452757	0.025710166	0.02712112	-1.4677976	0.4708374	-0.14389709	-1.1005863	0.51490484	0.13260698	-1.4611154	0.47254302	-0.018163963	-1.0991799	0.49773419	0.0049763284	-1.346161	0.87275846	-0.19683727	-1.3039597	0.86534495	0.17370747	-1.2364935	0.94370552	-0.1453824	-1.2221651	0.9482639	0.096300928	-1.3831434	1.0116623	-0.0065065099	-1.1889059	1.3959995	-0.17807581	-1.2256824	1.4104607	0.14857412	-1.2662137	1.4584954	-0.019242359	-1.3323762	1.0510534	-0.26506052	-1.4125033	1.1087165	0.24153806	-1.1093323	0.89398372	-0.24263416	-1.3364134	0.85376089	0.29608363
5	0.016	-1.4701411	0.03653624	-0.04537877	-0.83327365	0.10372104	0.057736185	-1.6204393	0.082156524	-0.071863038	-0.98213631	0.068607549	0.082231055	-1.588233	0.10064147	0.01872204	-0.97523095	0.11667428	-0.0052560453	NaN	NaN	NaN	-1.0276054	0.025225506	0.026603245	-1.4643731	0.47045804	-0.14387635	-1.0948379	0.51301266	0.13231356	-1.4574541	0.47205799	-0.018069054	-1.0924828	0.49619089	0.0045551824	-1.3406285	0.87151028	-0.19662706	-1.2974006	0.86335651	0.17368083	-1.2305012	0.94216073	-0.1456155	-1.215452	0.94651648	0.09610849	-1.377296	1.0099954	-0.0063423644	-1.1828235	1.3944898	-0.17796298	-1.2198717	1.4088268	0.14868017	-1.2605047	1.4567389	-0.019382294	-1.3256105	1.0490738	-0.26519942	-1.4065807	1.1069289	0.24118362	-1.1018307	0.89308307	-0.24230814	-1.3307342	0.85201484	0.2961448
6	0.02	-1.4700708	0.036460631	-0.04537085	-0.81788306	0.10784361	0.057665877	-1.6201014	0.082904052	-0.071734612	-0.96573351	0.06954902	0.081804313	-1.5875093	0.10117776	0.018752162	-0.96023188	0.11776881	-0.0058467656	NaN	NaN	NaN	-1.0103808	0.024922976	0.026137841	-1.4606989	0.47003109	-0.14386511	-1.0888797	0.51113206	0.13208447	-1.4536372	0.47155205	-0.017987017	-1.0858636	0.49463303	0.0041236914	-1.3350071	0.87028347	-0.19627803	-1.2906911	0.86137689	0.17366319	-1.2244566	0.94063176	-0.14585079	-1.2086811	0.94477969	0.095900083	-1.3723349	1.0081957	-0.0064553186	-1.1767368	1.3929897	-0.17785702	-1.2139739	1.4071872	0.14878056	-1.2546945	1.4549053	-0.019504106	-1.3186553	1.0472132	-0.26507241	-1.4006189	1.105153	0.24081791	-1.0943773	0.89213273	-0.2419875	-1.325038	0.85025574	0.2962013
7	0.024	-1.4701233	0.036340185	-0.045214388	-0.80309528	0.11199357	0.057670063	-1.6195072	0.083754274	-0.071776005	-0.94907235	0.07088697	0.081680565	-1.5867722	0.1017836	0.018721103	-0.94576723	0.11888447	-0.0064564526	NaN	NaN	NaN	-0.99369976	0.024850852	0.025657811	-1.4567937	0.46955501	-0.14385144	-1.0825918	0.50930598	0.13193804	-1.4496418	0.47104	-0.017943801	-1.0792698	0.49308123	0.0036865317	-1.3293118	0.86906035	-0.19589889	-1.2838328	0.85942132	0.17365756	-1.2183757	0.93911564	-0.14612143	-1.2018673	0.94306076	0.095668796	-1.3681692	1.006349	-0.0066184918	-1.1706699	1.3915086	-0.17776125	-1.2079958	1.4055563	0.1488775	-1.2487991	1.4531536	-0.019536461	-1.3115808	1.0454397	-0.26477646	-1.3946135	1.1034015	0.24045599	-1.0869838	0.89114234	-0.2416773	-1.3193967	0.84849029	0.29626299
8	0.028	-1.4703692	0.036146717	-0.044815832	-0.78885364	0.1160475	0.057626902	-1.6185508	0.084738062	-0.072013911	-0.93241383	0.072499438	0.081740195	-1.5859693	0.10249012	0.018630509	-0.9316609	0.12004434	-0.0070689855	NaN	NaN	NaN	-0.97763788	0.024990198	0.025112491	-1.452697	0.4690511	-0.14383214	-1.0760215	0.50756231	0.1318191	-1.4454447	0.47052897	-0.01795349	-1.0726659	0.49155601	0.0032562275	-1.3235287	0.86783341	-0.19553479	-1.2768413	0.85749685	0.17366398	-1.2122409	0.9376172	-0.14643648	-1.1950093	0.94137083	0.09542143	-1.3640096	1.0046083	-0.0064870266	-1.1646	1.3900589	-0.17766309	-1.2019573	1.4039477	0.14898074	-1.2428276	1.4515724	-0.019447404	-1.3045351	1.0437302	-0.26448366	-1.3885474	1.101679	0.24011899	-1.0796509	0.89012724	-0.24138141	-1.3137987	0.84673063	0.29632266
9	0.032	-1.4707384	0.035903956	-0.044260544	-0.77513453	0.11990693	0.05743836	-1.6173263	0.085837966	-0.072399714	-0.91646733	0.074084533	0.081650778	-1.585087	0.10328037	0.018481845	-0.91778328	0.12127891	-0.0076710556	NaN	NaN	NaN	-0.96223368	0.025255167	0.024446437	-1.4484647	0.46854844	-0.14379041	-1.0692601	0.50591538	0.1316904	-1.4410521	0.47000812	-0.018015826	-1.066031	0.49007554	0.0028493439	-1.3176434	0.86660469	-0.19518994	-1.2697262	0.85560943	0.1736782	-1.2060292	0.93614792	-0.1467695	-1.1880964	0.93972677	0.095169778	-1.3590555	1.0030087	-0.0060257958	-1.1584991	1.3886504	-0.17755391	-1.1958691	1.4023664	0.14909461	-1.2367951	1.4501251	-0.019265932	-1.297617	1.0420442	-0.26430971	-1.3824088	1.0999752	0.23980955	-1.072375	0.88909737	-0.2410961	-1.3081244	0.84498919	0.29635763
10	0.036	-1.4710153	0.035696984	-0.043823189	-0.76195457	0.1234983	0.057055064	-1.6161072	0.086992011	-0.072826588	-0.90177669	0.075417941	0.081111944	-1.5841483	0.10411716	0.018269716	-0.90426718	0.12255159	-0.0082919829	NaN	NaN	NaN	-0.94751502	0.025565463	0.023620006	-1.4441848	0.46806067	-0.14366787	-1.0623657	0.50436502	0.13156737	-1.4365101	0.46945943	-0.018108394	-1.0593417	0.48865739	0.0024787117	-1.3116563	0.86538089	-0.19485762	-1.2624867	0.85376668	0.17369867	-1.1997354	0.93471758	-0.14708082	-1.1811301	0.93814217	0.094917712	-1.3531691	1.001464	-0.0054771373	-1.1523607	1.3872855	-0.17744017	-1.1897159	1.4008107	0.14921866	-1.2307178	1.4487337	-0.019037335	-1.2908396	1.0403185	-0.26431668	-1.3762018	1.0982804	0.23951211	-1.0651579	0.8880522	-0.2408168	-1.3022621	0.84327584	0.29635542
